# AST/ASF file generated using VICON BodyLanguage
# -----------------------------------------------
:version 1.10
:name VICON
:units
  mass 1.0
  length 0.45
  angle deg
:documentation
   .ast/.asf automatically generated from VICON data using
   VICON BodyBuilder and BodyLanguage model FoxedUp or BRILLIANT.MOD
:root
   order TX TY TZ RX RY RZ
   axis XYZ
   position 0 0 0  
   orientation 0 0 0 
:bonedata
  begin
     id 1 
     name lhipjoint
     direction 0.521689 -0.742065 0.420928 
     length 2.47002 
     axis 0 0 0  XYZ
  end
  begin
     id 2 
     name lfemur
     direction 0.34202 -0.939693 0  
     length 7.24654  
     axis 0 0 20  XYZ
    dof rx ry rz
    limits (-160.0 20.0)
           (-70.0 70.0)
           (-60.0 70.0)
  end
  begin
     id 3 
     name ltibia
     direction 0.34202 -0.939693 0   
     length 8.04849   
     axis 0 0 20   XYZ
    dof rx
    limits (-10.0 170.0)
  end
  begin
     id 4 
     name lfoot
     direction 0.0745411 -0.2048 0.975961   
     length 1.72367   
     axis -90 7.62852e-016 20   XYZ
    dof rx rz
    limits (-45.0 90.0)
           (-70.0 20.0)
  end
  begin
     id 5 
     name ltoes
     direction 1.53556e-011 -4.21901e-011 1   
     length 0.87311   
     axis -90 7.62852e-016 20   XYZ
    dof rx
    limits (-90.0 20.0)
  end
  begin
     id 6 
     name rhipjoint
     direction -0.52849 -0.738415 0.418857   
     length 2.48223  
     axis 0 0 0  XYZ 
  end
  begin
     id 7 
     name rfemur
     direction -0.34202 -0.939693 0   
     length 7.15571   
     axis 0 0 -20   XYZ
    dof rx ry rz
    limits (-160.0 20.0)
           (-70.0 70.0)
           (-70.0 60.0)
  end
  begin
     id 8 
     name rtibia
     direction -0.34202 -0.939693 0   
     length 7.81659   
     axis 0 0 -20   XYZ
    dof rx
    limits (-10.0 170.0)
 end
 begin
     id 9 
     name rfoot
     direction -0.0917348 -0.252039 0.963359   
     length 1.84382  
     axis -90 -7.62852e-016 -20   XYZ
    dof rx rz
    limits (-45.0 90.0)
           (-20.0 70.0)
  end
  begin
     id 10 
     name rtoes
     direction -1.53551e-011 -4.21879e-011 1   
     length 0.927771   
     axis -90 -7.62852e-016 -20   XYZ
    dof rx
    limits (-90.0 20.0)
  end
  begin
     id 11 
     name lowerback
     direction 0.00583058 0.999822 0.0179296   
     length 2.1429   
     axis 0 0 0   XYZ
    dof rx ry rz
    limits (-20.0 45.0)
           (-30.0 30.0)
           (-30.0 30.0)
  end
  begin
     id 12 
     name upperback
     direction -0.0137999 0.999752 -0.0175071   
     length 2.14252   
     axis 0 0 0   XYZ
    dof rx ry rz
    limits (-20.0 45.0)
           (-30.0 30.0)
           (-30.0 30.0)
  end
  begin
     id 13 
     name thorax
     direction -0.0158036 0.99955 -0.0254909   
     length 2.1383   
     axis 0 0 0   XYZ
    dof rx ry rz
    limits (-20.0 45.0)
           (-30.0 30.0)
           (-30.0 30.0)
  end
  begin
     id 14 
     name lowerneck
     direction -0.0101179 0.999403 -0.0330262   
     length 1.65808   
     axis 0 0 0   XYZ
    dof rx ry rz
    limits (-20.0 45.0)
           (-30.0 30.0)
           (-30.0 30.0)
  end
  begin
     id 15 
     name upperneck
     direction 0.0497734 0.995978 -0.074501   
     length 1.5897   
     axis 0 0 0   XYZ
    dof rx ry rz
    limits (-20.0 45.0)
           (-30.0 30.0)
           (-30.0 30.0)
  end
  begin
     id 16
     name head
     direction 0.0189524 0.999519 -0.0245438  
     length 1.74024  
     axis 0 0 0   XYZ
    dof rx ry rz
    limits (-20.0 45.0)
           (-30.0 30.0)
           (-30.0 30.0)
  end
  begin
     id 17 
     name lclavicle
     direction 0.945604 0.324422 0.0241537  
     length 3.59089  
     axis 0 0 0   XYZ
    dof ry rz
    limits (-20.0 10.0)
           (0.0 20.0)
  end
  begin
     id 18 
     name lhumerus
     direction 1 -4.48964e-011 -2.63524e-027   
     length 5.2391   
     axis 180 -30 -90   XYZ
    dof rx ry rz
    limits (-60.0 90.0)
           (-90.0 90.0)
           (-90.0 90.0)
  end
  begin
     id 19
     name lradius
     direction 1 -4.48969e-011 3.86978e-028   
     length 3.31467   
     axis 180 -30 -90   XYZ
    dof rx
    limits (-10.0 170.0)
  end
  begin
     id 20
     name lwrist
     direction 1 -4.48963e-011 7.20928e-028   
     length 1.65734   
     axis -5.52449e-016 90 90   XYZ
    dof ry
    limits (-180.0 0.0)
 end
  begin
     id 21 
     name lhand
     direction 1 -4.48964e-011 1.44186e-027   
     length 0.9659   
     axis -9.20027e-016 90 90   XYZ
    dof rx rz
    limits (-90.0 90.0)
           (-45.0 45.0)
  end
  begin
     id 22 
     name lfingers
     direction 1 -4.48965e-011 2.88371e-027   
     length 0.778733   
     axis -1.84005e-015 90 90   XYZ
    dof rx
    limits (0.0 90.0)
  end
  begin
     id 23
     name lthumb
     direction 0.707107 -6.34931e-011 0.707107   
     length 1.11811   
     axis -90 45 2.85299e-015   XYZ
    dof rx rz
    limits (-45.0 45.0)
           (-45.0 45.0)
  end
  begin
     id 24 
     name rclavicle
     direction -0.923762 0.370785 0.0958234   
     length 3.54196  
     axis 0 0 0   XYZ 
    dof ry rz
    limits (-10.0 20.0)
           (-20.0 0.0)
  end
  begin
     id 25 
     name rhumerus
     direction -1 -4.48966e-011 1.18702e-017  
     length 5.30252   
     axis 180 30 90   XYZ
    dof rx ry rz
    limits (-90.0 60.0)
           (-90.0 90.0)
           (-90.0 90.0)
  end
  begin
     id 26 
     name rradius
     direction -1 -4.48966e-011 4.46736e-027   
     length 3.67875   
     axis 180 30 90   XYZ
    dof rx
    limits (-10.0 170.0)
  end
  begin
     id 27 
     name rwrist
     direction -1 -4.48966e-011 7.20928e-028   
     length 1.83937   
     axis -5.52449e-016 -90 -90   XYZ
    dof ry
    limits (-180.0 0.0)
  end
  begin
     id 28
     name rhand
     direction -1 -4.48973e-011 1.44186e-027   
     length 0.594811   
     axis -9.20027e-016 -90 -90   XYZ
    dof rx rz
    limits (-90.0 90.0)
           (-45.0 45.0)
  end
  begin
     id 29
     name rfingers
     direction -1 -4.48963e-011 2.88371e-027   
     length 0.479552   
     axis -1.84005e-015 -90 -90   XYZ
    dof rx
    limits (0.0 90.0)
  end
  begin
     id 30
     name rthumb
     direction -0.707107 -6.34932e-011 0.707107   
     length 0.688544   
     axis -90 -45 -2.85299e-015   XYZ
    dof rx rz
    limits (-45.0 45.0)
           (-45.0 45.0)
  end
:hierarchy
  begin
    root lhipjoint rhipjoint lowerback
    lhipjoint lfemur
    lfemur ltibia
    ltibia lfoot
    lfoot ltoes
    rhipjoint rfemur
    rfemur rtibia
    rtibia rfoot
    rfoot rtoes
    lowerback upperback
    upperback thorax
    thorax lowerneck lclavicle rclavicle
    lowerneck upperneck
    upperneck head
    lclavicle lhumerus
    lhumerus lradius
    lradius lwrist
    lwrist lhand lthumb
    lhand lfingers
    rclavicle rhumerus
    rhumerus rradius
    rradius rwrist
    rwrist rhand rthumb
    rhand rfingers
  end

#!OML:ASF E:\acrobat2\Project_11_07_03\Capture day 1\Session 1\Acrobat.ASF
:FULLY-SPECIFIED
:DEGREES
99
root 8.83918 18.2361 22.1178 7.38659 1.77189 0.316221
lowerback -10.4028 0.566452 0.170205
upperback -3.79482 0.785793 -1.82608
thorax 1.91184 0.383231 -1.89346
lowerneck 0.913661 -2.23028 -0.793767
upperneck 3.6051 -3.09226 3.89343
head 1.0376 -1.51516 1.31694
rclavicle -1.49089e-015 -2.22639e-014
rhumerus -40.9045 -1.65407 -87.2659
rradius 25.0183
rwrist 6.44381
rhand -6.28206 -40.6141
rfingers 7.12502
rthumb 19.5612 -69.6501
lclavicle -1.49089e-015 -2.22639e-014
lhumerus -34.5517 -19.0525 93.6895
lradius 20.0312
lwrist 12.715
lhand -8.30443 -8.66659
lfingers 7.12502
lthumb 17.6159 20.5554
rfemur -0.520094 5.79773 21.8419
rtibia 2.87168
rfoot -18.1006 -16.4491
rtoes 9.18644
lfemur -2.58357 -2.27025 -20.2906
ltibia 4.47334
lfoot -5.57448 -6.63604
ltoes 36.0491
100
root 8.833 18.2404 22.1213 7.20607 2.01128 0.486437
lowerback -10.2971 0.425312 -0.119041
upperback -3.741 0.627115 -1.82808
thorax 1.90135 0.305712 -1.75161
lowerneck 1.05208 -2.18863 -0.844826
upperneck 3.53814 -3.03658 3.98075
head 0.994527 -1.48938 1.35532
rclavicle 4.22417e-015 -1.51076e-014
rhumerus -40.9498 -1.43936 -87.35
rradius 25.0769
rwrist 6.2537
rhand -6.1486 -40.5711
rfingers 7.12502
rthumb 19.6895 -69.594
lclavicle 4.22417e-015 -1.51076e-014
lhumerus -34.5531 -18.8299 93.5871
lradius 20.0338
lwrist 12.5883
lhand -8.44043 -8.82546
lfingers 7.12502
lthumb 17.485 20.4082
rfemur -0.0894775 6.10565 21.7675
rtibia 2.54551
rfoot -18.0172 -17.0313
rtoes 8.0694
lfemur -2.37896 -2.33559 -20.4346
ltibia 4.51466
lfoot -5.28395 -6.7977
ltoes 40.5222
101
root 8.83379 18.2406 22.1192 7.18796 1.97658 0.563962
lowerback -10.2708 0.412866 -0.205987
upperback -3.773 0.618911 -1.85442
thorax 1.85293 0.301637 -1.73109
lowerneck 1.2468 -2.15483 -0.8073
upperneck 3.43757 -2.98852 4.02582
head 0.929132 -1.46778 1.36557
rclavicle -1.49089e-015 -1.82882e-014
rhumerus -40.9979 -1.26606 -87.4492
rradius 25.1113
rwrist 6.01675
rhand -6.21448 -40.8092
rfingers 7.12502
rthumb 19.6262 -69.8386
lclavicle -1.49089e-015 -1.82882e-014
lhumerus -34.6171 -18.6817 93.4961
lradius 20.0672
lwrist 12.4269
lhand -8.54973 -9.04714
lfingers 7.12502
lthumb 17.3798 20.1958
rfemur -0.0902052 6.10689 21.6514
rtibia 2.56156
rfoot -17.0699 -17.1274
rtoes 3.27626
lfemur -2.35727 -2.41746 -20.5467
ltibia 4.5656
lfoot -5.35478 -6.99265
ltoes 38.5959
102
root 8.83495 18.2411 22.1171 7.18504 1.95307 0.592608
lowerback -10.2466 0.444792 -0.203621
upperback -3.78734 0.660997 -1.87405
thorax 1.82627 0.322402 -1.74802
lowerneck 1.22597 -2.16659 -0.800058
upperneck 3.47571 -3.0047 3.99554
head 0.944229 -1.47537 1.35434
rclavicle -1.13307e-014 1.19271e-014
rhumerus -41.0253 -1.3447 -87.382
rradius 25.1671
rwrist 5.97028
rhand -6.26372 -40.9505
rfingers 7.12502
rthumb 19.5788 -69.9847
lclavicle -1.13307e-014 1.19271e-014
lhumerus -34.6412 -18.7659 93.55
lradius 20.0825
lwrist 12.3921
lhand -8.65377 -9.22358
lfingers 7.12502
lthumb 17.2797 20.0282
rfemur -0.133832 5.85028 21.5945
rtibia 2.63399
rfoot -17.7136 -16.9355
rtoes 6.35973
lfemur -2.3465 -2.41121 -20.5852
ltibia 4.54526
lfoot -5.28882 -6.91004
ltoes 41.8886
103
root 8.83716 18.243 22.114 7.17742 1.95561 0.54412
lowerback -10.2173 0.453996 -0.118266
upperback -3.78244 0.663978 -1.84797
thorax 1.816 0.32357 -1.76886
lowerneck 1.12727 -2.17968 -0.812391
upperneck 3.52738 -3.02173 3.9056
head 0.975877 -1.48321 1.32678
rclavicle 5.96354e-016 -1.66979e-014
rhumerus -40.9979 -1.30587 -87.3276
rradius 25.1852
rwrist 5.86827
rhand -6.22815 -40.9982
rfingers 7.12502
rthumb 19.613 -70.0288
lclavicle 5.96354e-016 -1.66979e-014
lhumerus -34.616 -18.763 93.5953
lradius 20.1124
lwrist 12.4218
lhand -8.64049 -9.20077
lfingers 7.12502
lthumb 17.2925 20.0499
rfemur -0.149411 5.59406 21.64
rtibia 2.71838
rfoot -17.7715 -16.7485
rtoes 6.8297
lfemur -2.33443 -2.39332 -20.5333
ltibia 4.52223
lfoot -5.33348 -7.02435
ltoes 38.8509
104
root 8.83803 18.2443 22.1103 7.19679 1.94679 0.484983
lowerback -10.2173 0.418668 -0.061495
upperback -3.81019 0.610376 -1.81873
thorax 1.78585 0.296453 -1.77685
lowerneck 1.18904 -2.14537 -0.802929
upperneck 3.49922 -2.97457 3.89946
head 0.955116 -1.46058 1.32418
rclavicle -1.13804e-014 2.38542e-015
rhumerus -40.9897 -1.18056 -87.3662
rradius 25.1768
rwrist 5.8435
rhand -6.05185 -41.1133
rfingers 7.12502
rthumb 19.7825 -70.1266
lclavicle -1.13804e-014 2.38542e-015
lhumerus -34.6523 -18.5921 93.5217
lradius 20.1788
lwrist 12.4127
lhand -8.54669 -9.07841
lfingers 7.12502
lthumb 17.3828 20.1643
rfemur -0.139356 6.06448 21.7067
rtibia 2.51262
rfoot -18.0457 -16.9537
rtoes 8.88241
lfemur -2.37782 -2.3791 -20.4677
ltibia 4.4741
lfoot -5.38511 -6.77308
ltoes 39.2114
105
root 8.84118 18.2426 22.1053 7.2958 1.83927 0.392226
lowerback -10.2972 0.425606 0.0719121
upperback -3.85726 0.605978 -1.79588
thorax 1.78175 0.293363 -1.8287
lowerneck 1.26125 -2.109 -0.802632
upperneck 3.46874 -2.92516 3.91368
head 0.932407 -1.43689 1.32969
rclavicle 4.96962e-016 1.66979e-014
rhumerus -40.9782 -1.10164 -87.3829
rradius 25.212
rwrist 5.9803
rhand -5.74131 -41.0498
rfingers 7.12502
rthumb 20.081 -70.0321
lclavicle 4.96962e-016 1.66979e-014
lhumerus -34.6794 -18.5232 93.4839
lradius 20.2308
lwrist 12.4862
lhand -8.46213 -8.93757
lfingers 7.12502
lthumb 17.4641 20.2979
rfemur -0.374397 5.88246 21.756
rtibia 2.67903
rfoot -17.9246 -16.708
rtoes 8.50502
lfemur -2.50946 -2.37676 -20.3852
ltibia 4.42
lfoot -5.66304 -6.62075
ltoes 34.3482
106
root 8.85151 18.2409 22.0977 7.40816 1.68385 0.364811
lowerback -10.3999 0.48463 0.22607
upperback -3.85753 0.669891 -1.79811
thorax 1.84139 0.324565 -1.90998
lowerneck 1.26334 -2.11 -0.864351
upperneck 3.38772 -2.92525 3.95645
head 0.908746 -1.43825 1.35405
rclavicle 7.95139e-016 -3.77691e-014
rhumerus -40.8769 -1.05769 -87.3328
rradius 25.2412
rwrist 6.10644
rhand -5.7271 -40.8904
rfingers 7.12502
rthumb 20.0947 -69.8713
lclavicle 7.95139e-016 -3.77691e-014
lhumerus -34.6178 -18.6714 93.578
lradius 20.2573
lwrist 12.6766
lhand -8.46102 -8.8
lfingers 7.12502
lthumb 17.4652 20.4354
rfemur -0.701409 5.11648 21.6441
rtibia 2.98274
rfoot -17.5283 -16.0981
rtoes 7.0642
lfemur -2.64019 -2.40295 -20.4643
ltibia 4.4074
lfoot -5.76222 -6.42559
ltoes 36.5967
107
root 8.85782 18.2414 22.0932 7.4224 1.5712 0.504819
lowerback -10.3844 0.519686 0.151034
upperback -3.86046 0.724684 -1.84332
thorax 1.83151 0.351963 -1.90818
lowerneck 1.29982 -2.12368 -0.883381
upperneck 3.33083 -2.94217 3.97607
head 0.886037 -1.4478 1.36393
rclavicle 6.06293e-015 1.59028e-014
rhumerus -40.8516 -1.096 -87.2698
rradius 25.2695
rwrist 6.16669
rhand -5.96351 -40.801
rfingers 7.12502
rthumb 19.8674 -69.8055
lclavicle 6.06293e-015 1.59028e-014
lhumerus -34.6278 -18.8228 93.6868
lradius 20.2999
lwrist 12.8176
lhand -8.43877 -8.71
lfingers 7.12502
lthumb 17.4866 20.5235
rfemur -0.7849 4.7796 21.3716
rtibia 3.07131
rfoot -17.6392 -15.5541
rtoes 8.95596
lfemur -2.63799 -2.37242 -20.7306
ltibia 4.38774
lfoot -5.76887 -6.31599
ltoes 38.6451
108
root 8.85739 18.2421 22.0918 7.38579 1.51957 0.589652
lowerback -10.2721 0.523839 0.0706168
upperback -3.91412 0.737021 -1.87656
thorax 1.71423 0.357657 -1.89673
lowerneck 1.31709 -2.13438 -0.878315
upperneck 3.42914 -2.95981 3.97934
head 0.9142 -1.45561 1.36395
rclavicle -2.00276e-014 1.78906e-014
rhumerus -40.94 -1.1535 -87.2501
rradius 25.3165
rwrist 6.2214
rhand -6.11136 -40.722
rfingers 7.12502
rthumb 19.7253 -69.7412
lclavicle -2.00276e-014 1.78906e-014
lhumerus -34.7128 -18.6717 93.6391
lradius 20.3655
lwrist 12.7175
lhand -8.19846 -8.6415
lfingers 7.12502
lthumb 17.7179 20.5713
rfemur -0.751607 4.75006 21.2573
rtibia 3.08115
rfoot -17.6905 -15.4402
rtoes 9.15161
lfemur -2.57242 -2.30926 -20.8439
ltibia 4.35922
lfoot -5.74009 -6.33302
ltoes 38.8858
109
root 8.86033 18.2434 22.0891 7.38751 1.59298 0.473043
lowerback -10.2401 0.510347 0.244922
upperback -3.93812 0.701489 -1.86516
thorax 1.67239 0.338629 -1.98758
lowerneck 1.2837 -2.13066 -0.902387
upperneck 3.51178 -2.95913 4.02527
head 0.946961 -1.45387 1.38218
rclavicle -7.45443e-016 1.90833e-014
rhumerus -40.9398 -1.15797 -87.2713
rradius 25.3415
rwrist 6.29331
rhand -6.1029 -40.6857
rfingers 7.12502
rthumb 19.7334 -69.704
lclavicle -7.45443e-016 1.90833e-014
lhumerus -34.6669 -18.3626 93.4828
lradius 20.3665
lwrist 12.4431
lhand -7.9642 -8.65498
lfingers 7.12502
lthumb 17.9433 20.5373
rfemur -0.760546 4.63836 21.3873
rtibia 3.07874
rfoot -17.6787 -15.3824
rtoes 8.72961
lfemur -2.57744 -2.30885 -20.7136
ltibia 4.34511
lfoot -5.68096 -6.43156
ltoes 38.5242
110
root 8.86487 18.2439 22.0857 7.41952 1.66007 0.395851
lowerback -10.3098 0.503107 0.380694
upperback -3.90094 0.679436 -1.85026
thorax 1.74957 0.327492 -2.05079
lowerneck 1.22872 -2.10362 -0.924997
upperneck 3.48528 -2.92334 4.06232
head 0.948173 -1.43562 1.39759
rclavicle 7.65321e-015 1.15295e-014
rhumerus -40.8492 -1.14274 -87.2658
rradius 25.3954
rwrist 6.26924
rhand -6.12991 -40.6967
rfingers 7.12502
rthumb 19.7075 -69.7177
lclavicle 7.65321e-015 1.15295e-014
lhumerus -34.5251 -18.2855 93.4357
lradius 20.3288
lwrist 12.3571
lhand -7.89549 -8.77933
lfingers 7.12502
lthumb 18.0094 20.4069
rfemur -0.835456 4.47507 21.4516
rtibia 3.12362
rfoot -17.4214 -15.3668
rtoes 7.65424
lfemur -2.64241 -2.37569 -20.6372
ltibia 4.34861
lfoot -5.66778 -6.48498
ltoes 36.6402
